<?xml version="1.0" encoding="UTF-8"?>
<svg version="1.1" viewBox="0 0 48 48" xmlns="http://www.w3.org/2000/svg">
<path d="m35.8 42h-22.2v-25.6l13.9-14.4 1.95 1.55q0.3 0.25 0.45 0.7t0.15 1.1v0.5l-2.25 10.55h14.95q1.2 0 2.1 0.9t0.9 2.1v4.1q0 0.35 0.075 0.725t-0.075 0.725l-6.3 14.5q-0.45 1.05-1.475 1.8t-2.175 0.75zm-19.2-3h19.85l6.3-14.95v-4.65h-18.65l2.65-12.45-10.15 10.7zm0-21.35v21.35zm-3-1.25v3h-6.65v19.6h6.65v3h-9.65v-25.6z"/>
<path d="m3.9722 29.194v-12.778h9.6598l6.9328-7.1806c3.8131-3.9493 6.9369-7.1806 6.9419-7.1806 5e-3 0 0.47159 0.36774 1.0369 0.81719 0.5653 0.44946 1.0779 0.89946 1.1392 1 0.20529 0.33689 0.29806 0.72294 0.32431 1.3495l0.0256 0.61111-2.2606 10.556 7.7528 0.02778c8.292 0.02971 7.8205 0.01393 8.4195 0.28177 0.6494 0.29039 1.3286 1.0223 1.5852 1.7083 0.18218 0.48693 0.2104 0.96047 0.2257 3.7877l0.01428 2.6389-3.2107 7.3889c-1.7659 4.0639-3.2989 7.5355-3.4067 7.7148-0.40571 0.67483-1.1689 1.3538-1.913 1.7021-0.75658 0.35405 0.43116 0.33111-17.198 0.33217l-16.069 9.64e-4zm9.6667 0v-9.8333h-6.7222v19.667h6.7222zm25.979 2.3724 3.1317-7.4332v-4.7725h-18.613l0.02949-0.125c0.21382-0.90649 2.585-12.185 2.5727-12.237-0.0092-0.039534-2.2975 2.332-5.0851 5.27l-5.0683 5.3419-0.0022 21.417 19.903-0.028081z" fill="#ff4d40" stroke-width=".055556"/>
<path d="m3.9722 29.203v-12.787h9.7063l2.8552-2.9574c1.5703-1.6266 4.6835-4.8481 6.918-7.159l4.0629-4.2016 0.79826 0.63631c0.9518 0.7587 1.2998 1.086 1.4372 1.3514 0.13516 0.26112 0.2163 0.74448 0.228 1.3581 0.0088 0.45927-0.08161 0.92453-1.1093 5.7117-0.61534 2.8664-1.1188 5.219-1.1188 5.2279 0 0.0089 3.3188 0.03431 7.375 0.05647 4.0562 0.02215 7.6191 0.06114 7.9174 0.08664 0.75479 0.06452 1.1351 0.24799 1.7139 0.82677 0.53482 0.53482 0.79828 1.0365 0.87906 1.6739 0.02904 0.22912 0.06992 1.6166 0.09085 3.0832l0.03805 2.6667-1.9577 4.5c-3.3603 7.724-4.3423 9.9492-4.6583 10.556-0.34919 0.67015-1.1733 1.4135-2.0327 1.8334-0.221 0.10799-0.42688 0.14958-0.9489 0.19168-0.39231 0.03164-7.154 0.06981-16.431 0.09276l-15.764 0.03899zm9.6667-9e-3v-9.8333h-6.7222v19.667h6.7222zm25.991 2.4264 3.1206-7.407v-4.8527h-9.2778c-5.9967 0-9.2778-0.01918-9.2778-0.05423 0-0.02983 0.11398-0.58608 0.25328-1.2361 1.1219-5.2349 2.3076-10.947 2.2902-11.033-0.02389-0.11776-1.1741 1.0695-8.1715 8.4345l-1.9794 2.0833-0.0036 21.472h19.925z" fill="#ff4d40" stroke-width=".055556"/>
<path d="m3.9722 29.194v-12.778h9.7028l1.3014-1.3473c0.71575-0.74102 3.4492-3.5723 6.0743-6.2917 2.6251-2.7194 5.1552-5.3338 5.6223-5.8098l0.84928-0.8654 0.65552 0.51957c0.93244 0.73906 1.4474 1.2166 1.5691 1.4551 0.1382 0.27088 0.21929 0.74932 0.23176 1.3672 0.0093 0.46038-0.07861 0.91287-1.1093 5.7106-0.61564 2.8658-1.1194 5.2184-1.1194 5.2279 0 0.0096 3.3312 0.03531 7.4028 0.05722 4.0715 0.0219 7.646 0.06244 7.9432 0.09007 0.66828 0.06213 1.0446 0.23594 1.565 0.72275 0.44109 0.41262 0.70845 0.80584 0.86882 1.2778 0.10822 0.31852 0.12682 0.53318 0.16816 1.9414 0.02556 0.87083 0.04772 2.2036 0.04925 2.9616l0.0028 1.3783-2.0342 4.6773c-2.4337 5.5959-4.1595 9.5245-4.439 10.105-0.11233 0.23337-0.32095 0.56918-0.4636 0.74625-0.51538 0.63973-1.51 1.3386-2.0929 1.4705-0.33355 0.07548-11.219 0.14544-24.067 0.15467l-8.6806 0.0062zm9.6667 0v-9.8333h-6.7222v19.667h6.7222zm25.99 2.4238 3.1216-7.4095v-4.8476h-9.2778c-6.4192 0-9.2778-0.0179-9.2778-0.0581 0-0.03196 0.20162-1.0007 0.44804-2.1528 1.3031-6.0923 2.1196-10.074 2.0748-10.117-0.04853-0.047221-1.4823 1.4299-6.0868 6.2708l-4.0442 4.2518-3e-3 21.472h19.923z" fill="#ff4d40" stroke-width="0"/>
<path d="m3.9722 29.194v-12.778h9.7004l1.247-1.2919c6.6738-6.914 10.947-11.337 11.697-12.105l0.90214-0.92437 0.76835 0.60971c1.307 1.0372 1.5123 1.2785 1.6232 1.9087 0.14834 0.84292 0.11114 1.1739-0.39933 3.5525-1.1592 5.4014-1.7611 8.2115-1.7611 8.2221 0 0.0063 3.3312 0.02934 7.4028 0.05124s7.646 0.06247 7.9432 0.09014c0.66829 0.06222 1.0447 0.23606 1.565 0.72282 0.44133 0.41284 0.70864 0.80612 0.86852 1.2778 0.10707 0.31587 0.12694 0.53835 0.16847 1.8859 0.02589 0.84028 0.04819 2.1728 0.04954 2.9612l0.0025 1.4334-0.81223 1.8721c-2.9152 6.7192-5.3505 12.272-5.676 12.941-0.35132 0.72268-0.93446 1.3328-1.7381 1.8187-0.77235 0.46691-0.10484 0.43-8.607 0.47582-4.1708 0.02248-11.49 0.04357-16.264 0.04688l-8.6806 6e-3zm9.6667 0v-9.8333h-6.7222v19.667h6.7222zm25.988 2.4202 3.1232-7.4132v-4.8404h-9.2778c-7.4215 0-9.2778-0.014-9.2778-0.06996 0-0.03848 0.1136-0.59473 0.25244-1.2361 1.0162-4.6945 2.3127-10.981 2.2728-11.021-0.01517-0.015168-0.14172 0.083362-0.28122 0.21896-0.40324 0.39194-3.2445 3.3558-6.6806 6.9688l-3.1701 3.3333-0.0044 21.472h19.92z" fill="#ff4d40" stroke-width="0"/>
<path d="m3.9722 29.204v-12.787h9.6992l2.6643-2.7614c5.3112-5.5048 9.3424-9.6752 10.255-10.609l0.93163-0.95339 0.76682 0.61123c1.2925 1.0302 1.4994 1.2702 1.6201 1.8789 0.13178 0.66415 0.09348 1.2881-0.14833 2.4167-0.12439 0.58056-0.62765 2.9281-1.1184 5.2168-0.4907 2.2887-0.89219 4.166-0.89219 4.1718 0 0.0058 3.3312 0.02837 7.4028 0.05016 4.0715 0.02178 7.646 0.06259 7.9432 0.09069 0.673 0.06362 1.079 0.25264 1.5838 0.7374 0.43731 0.41993 0.72203 0.84421 0.86095 1.283 0.12504 0.39494 0.20194 2.1632 0.20655 4.7498l0.0027 1.5218-1.4513 3.3394c-3.1577 7.2658-4.6999 10.772-5.0777 11.546-0.25947 0.53126-0.80339 1.1357-1.3818 1.5356-0.67846 0.46902-0.93369 0.56298-1.6855 0.62049-0.35958 0.02751-7.7475 0.06751-16.418 0.0889l-15.764 0.03889zm9.6667-0.0092v-9.8333h-6.7222v19.667h6.7222zm25.987 2.4177 3.1242-7.4156v-4.8354h-9.2778c-7.4215 0-9.2778-0.014-9.2778-0.06996 0-0.03848 0.11063-0.58223 0.24585-1.2083 1.0408-4.8193 2.3139-11.014 2.2721-11.055-0.04369-0.043184-1.552 1.5211-8.0616 8.3611l-2.062 2.1667-0.0054 21.472h19.918z" fill="#ff4d40"/>
</svg>
