<?xml version="1.0" encoding="UTF-8"?>
<svg version="1.1" viewBox="0 0 48 48" xmlns="http://www.w3.org/2000/svg">
<path d="m36.05 42h-23.35v-25.6l13.9-14.4 1.65 1.3q0.55 0.4 0.725 0.9t0.175 1.15v0.5l-2.25 10.55h16.1q1.15 0 2.075 0.925t0.925 2.075v4.1q0 0.55-0.125 1.275t-0.375 1.275l-5.8 13.4q-0.45 1.05-1.475 1.8t-2.175 0.75zm-26.35-25.6v25.6h-5.7v-25.6z"/>
<path d="m12.722 29.2v-12.772l6.9256-7.1752c4.1465-4.296 6.9547-7.164 6.9981-7.1473 0.14986 0.057506 1.8666 1.4467 2.0247 1.6384 0.28528 0.34586 0.39574 0.73153 0.42324 1.4777l0.02457 0.66667-1.1148 5.21c-0.61314 2.8655-1.1148 5.2338-1.1148 5.2628 0 0.03315 3.1028 0.05844 8.3194 0.06781l8.3194 0.01494 0.33116 0.12491c0.74341 0.28041 1.4534 0.92784 1.8127 1.6529 0.29232 0.58999 0.32746 0.93284 0.32799 3.2003 5e-4 2.0957-0.05956 3.0006-0.24853 3.7455-0.09994 0.39397-0.91919 2.3453-3.1438 7.4879-1.6547 3.8253-3.0969 7.1018-3.2048 7.281-0.40649 0.67532-1.1693 1.3539-1.9133 1.7021-0.7494 0.35068 0.01367 0.33111-12.948 0.33217l-11.819 9.64e-4z" fill="#ff4d40" stroke-width=".055556"/>
<path d="m4.0278 29.194v-12.778h5.6667v25.556h-5.6667z" fill="#ff4d40" stroke-width=".055556"/>
</svg>
