<?xml version="1.0" encoding="UTF-8" standalone="no"?>
<svg
   height="48"
   width="48"
   version="1.1"
   id="svg1323"
   sodipodi:docname="thumb_up_FILL0_wght400_GRAD0_opsz48.svg"
   inkscape:version="1.2 (dc2aedaf03, 2022-05-15)"
   xmlns:inkscape="http://www.inkscape.org/namespaces/inkscape"
   xmlns:sodipodi="http://sodipodi.sourceforge.net/DTD/sodipodi-0.dtd"
   xmlns="http://www.w3.org/2000/svg"
   xmlns:svg="http://www.w3.org/2000/svg">
  <defs
     id="defs1327" />
  <sodipodi:namedview
     id="namedview1325"
     pagecolor="#ffffff"
     bordercolor="#000000"
     borderopacity="0.25"
     inkscape:showpageshadow="2"
     inkscape:pageopacity="0.0"
     inkscape:pagecheckerboard="0"
     inkscape:deskcolor="#d1d1d1"
     showgrid="false"
     inkscape:zoom="18"
     inkscape:cx="13.361111"
     inkscape:cy="24"
     inkscape:window-width="1920"
     inkscape:window-height="1051"
     inkscape:window-x="-9"
     inkscape:window-y="-9"
     inkscape:window-maximized="1"
     inkscape:current-layer="svg1323" />
  <path
     d="M35.8 42H13.6V16.4L27.5 2L29.45 3.55Q29.75 3.8 29.9 4.25Q30.05 4.7 30.05 5.35V5.85L27.8 16.4H42.75Q43.95 16.4 44.85 17.3Q45.75 18.2 45.75 19.4V23.5Q45.75 23.85 45.825 24.225Q45.9 24.6 45.75 24.95L39.45 39.45Q39 40.5 37.975 41.25Q36.95 42 35.8 42ZM16.6 39H36.45Q36.45 39 36.45 39Q36.45 39 36.45 39L42.75 24.05V19.4Q42.75 19.4 42.75 19.4Q42.75 19.4 42.75 19.4H24.1L26.75 6.95L16.6 17.65ZM16.6 17.65V19.4Q16.6 19.4 16.6 19.4Q16.6 19.4 16.6 19.4V24.05V39Q16.6 39 16.6 39Q16.6 39 16.6 39ZM13.6 16.4V19.4H6.95V39H13.6V42H3.95V16.4Z"
     id="path1321" />
  <path
     style="fill:#ff4d40;stroke-width:0.0555556"
     d="M 3.9722222,29.194444 V 16.416667 h 4.8299116 4.8299122 l 6.932835,-7.1805559 c 3.81306,-3.9493055 6.936921,-7.1805555 6.941915,-7.1805555 0.005,0 0.471591,0.3677376 1.036886,0.8171948 0.565295,0.4494571 1.077936,0.8994571 1.139202,1 0.205289,0.3368927 0.298064,0.7229372 0.32431,1.3494718 l 0.0256,0.6111111 -1.130316,5.2777777 -1.130315,5.277778 7.752808,0.02778 c 8.291995,0.02971 7.820506,0.01393 8.419473,0.281767 0.649399,0.290388 1.328559,1.022261 1.585225,1.708263 0.182184,0.48693 0.2104,0.960466 0.225696,3.787747 l 0.01428,2.638889 -3.210724,7.388889 c -1.765898,4.063889 -3.298895,7.535549 -3.40666,7.7148 -0.405707,0.674831 -1.168865,1.353827 -1.913041,1.70207 -0.756585,0.354049 0.431164,0.331107 -17.19755,0.332166 l -16.0694448,9.64e-4 z m 9.6666668,0 V 19.361111 H 10.277778 6.9166667 v 9.833333 9.833334 h 3.3611113 3.361111 z M 39.61829,31.566803 42.75,24.133605 v -2.386247 -2.386247 h -9.306614 -9.306614 l 0.02949,-0.125 C 24.38008,18.329622 26.751228,7.0515399 26.739001,6.99916 c -0.0092,-0.039534 -2.297534,2.3319811 -5.085125,5.270035 l -5.068346,5.341916 -0.0011,10.708485 -0.0011,10.708485 9.951624,-0.01404 L 36.48658,39 Z"
     id="path1863" />
  <path
     style="fill:#ff4d40;stroke-width:0.0555556"
     d="M 3.9722222,29.203419 V 16.416667 h 4.8531644 4.8531644 l 2.855169,-2.957381 c 1.570343,-1.626559 4.683454,-4.8481032 6.918026,-7.1589867 l 4.062856,-4.201606 0.798255,0.6363091 c 0.951796,0.7587013 1.299847,1.0859588 1.437215,1.3513517 0.135157,0.261121 0.216304,0.7444842 0.227996,1.3580903 0.0088,0.4592719 -0.08161,0.9245265 -1.10927,5.7117156 C 28.253459,14.022603 27.75,16.375161 27.75,16.384066 c 0,0.0089 3.31875,0.03431 7.375,0.05647 4.05625,0.02215 7.619074,0.06114 7.917386,0.08664 0.754787,0.06452 1.135135,0.247992 1.71391,0.826766 0.534821,0.534823 0.798279,1.036506 0.879056,1.673928 0.02904,0.229118 0.06992,1.616578 0.09085,3.083245 l 0.03805,2.666667 -1.957718,4.5 c -3.360308,7.723984 -4.342315,9.949195 -4.658266,10.555555 -0.349192,0.670154 -1.173326,1.413491 -2.032693,1.83341 -0.221005,0.107992 -0.426877,0.149578 -0.948905,0.19168 -0.392311,0.03164 -7.154046,0.06981 -16.430556,0.09276 l -15.7638888,0.03899 z m 9.6666668,-0.009 V 19.361111 H 10.277778 6.9166667 v 9.833333 9.833334 h 3.3611113 3.361111 z M 39.629402,31.620804 42.75,24.213831 v -2.42636 -2.42636 h -9.277778 c -5.996749,0 -9.277778,-0.01918 -9.277778,-0.05423 0,-0.02983 0.113977,-0.586076 0.253282,-1.236111 1.121862,-5.234925 2.307566,-10.9471711 2.290151,-11.0330271 -0.02389,-0.1177632 -1.174098,1.0694595 -8.171522,8.4344771 l -1.979353,2.083334 -0.0018,10.736111 -0.0018,10.736111 h 9.962736 9.962736 z"
     id="path1865" />
  <path
     style="fill:#ff4d40;stroke-width:0;stroke-dasharray:none"
     d="M 3.9722222,29.194444 V 16.416667 h 4.8514124 4.8514124 l 1.301365,-1.347317 c 0.715751,-0.741024 3.449207,-3.572274 6.074347,-6.2916667 2.625139,-2.7193925 5.155155,-5.3337814 5.622258,-5.8097531 l 0.849277,-0.8654032 0.65552,0.5195711 c 0.932442,0.7390623 1.447387,1.2166081 1.569055,1.4550982 0.138195,0.2708839 0.219293,0.7493226 0.231756,1.3672481 0.0093,0.4603815 -0.07861,0.9128685 -1.10927,5.7105536 C 28.25371,14.020802 27.75,16.373377 27.75,16.382942 c 0,0.0096 3.33125,0.03531 7.402778,0.05722 4.071528,0.0219 7.645966,0.06244 7.943196,0.09007 0.668278,0.06213 1.044629,0.235935 1.565038,0.722752 0.441094,0.412622 0.708454,0.805837 0.868816,1.277795 0.108225,0.318517 0.126818,0.533178 0.168155,1.941446 0.02556,0.870834 0.04772,2.203554 0.04925,2.9616 l 0.0028,1.378266 -2.034217,4.677289 c -2.433734,5.595901 -4.15949,9.524519 -4.439,10.105216 -0.112327,0.233366 -0.320947,0.569179 -0.463599,0.74625 -0.515381,0.639734 -1.510035,1.338567 -2.092938,1.470474 -0.333552,0.07548 -11.218985,0.145435 -24.067468,0.154667 l -8.6805558,0.0062 z m 9.6666668,0 V 19.361111 H 10.277778 6.9166667 v 9.833333 9.833334 h 3.3611113 3.361111 z M 39.628401,31.618249 42.75,24.20872 v -2.423804 -2.423805 h -9.277778 c -6.419246,0 -9.277778,-0.0179 -9.277778,-0.0581 0,-0.03196 0.201617,-1.000706 0.448036,-2.152778 1.303089,-6.09226 2.119587,-10.0736407 2.074825,-10.1171954 -0.04853,-0.047221 -1.482282,1.4298544 -6.086829,6.2707584 l -4.04417,4.251762 -0.0015,10.736111 -0.0015,10.736111 h 9.961735 9.961734 z"
     id="path1867" />
  <path
     style="fill:#ff4d40;stroke-width:0;stroke-dasharray:none"
     d="M 3.9722222,29.194444 V 16.416667 H 8.8224277 13.672633 L 14.91965,15.124764 C 21.593463,8.2107339 25.867078,3.7881935 26.616722,3.0200776 l 0.902137,-0.9243668 0.768348,0.6097057 c 1.30704,1.0371723 1.512302,1.2785386 1.623203,1.9087153 0.148342,0.8429213 0.111135,1.1739179 -0.399334,3.5525349 C 28.351897,13.568054 27.75,16.378193 27.75,16.388781 c 0,0.0063 3.33125,0.02934 7.402778,0.05124 4.071528,0.0219 7.645966,0.06247 7.943196,0.09014 0.668287,0.06222 1.044693,0.236065 1.565038,0.722822 0.44133,0.412842 0.708642,0.806118 0.868525,1.277795 0.107069,0.315866 0.126944,0.538348 0.168474,1.885891 0.02589,0.840277 0.04819,2.172827 0.04954,2.961222 l 0.0025,1.433444 -0.812227,1.872111 c -2.915165,6.719195 -5.350516,12.271819 -5.67603,12.941406 -0.351325,0.72268 -0.934455,1.332841 -1.738089,1.818659 -0.77235,0.466906 -0.104836,0.430004 -8.606987,0.475818 -4.170834,0.02248 -11.489584,0.04357 -16.263889,0.04688 l -8.6805558,0.006 z m 9.6666668,0 V 19.361111 H 10.277778 6.9166667 v 9.833333 9.833334 h 3.3611113 3.361111 z M 39.626811,31.614626 42.75,24.201473 v -2.420181 -2.420181 h -9.277778 c -7.421489,0 -9.277778,-0.014 -9.277778,-0.06996 0,-0.03848 0.113599,-0.594726 0.252441,-1.236111 1.01624,-4.694535 2.312657,-10.9806848 2.272808,-11.0205337 -0.01517,-0.015168 -0.141719,0.083362 -0.281224,0.2189566 -0.40324,0.3919362 -3.244548,3.3558171 -6.680562,6.9687571 l -3.170099,3.333334 -0.0022,10.736111 -0.0022,10.736111 h 9.960144 9.960145 z"
     id="path1876" />
  <path
     style="fill:#ff4d40;stroke-width:0;stroke-dasharray:none;stroke:none"
     d="M 3.9722222,29.203621 V 16.416667 h 4.8496154 4.8496154 l 2.664274,-2.761388 c 5.31118,-5.5047757 9.342351,-9.6751513 10.25456,-10.6086706 l 0.931628,-0.9533915 0.76682,0.6112309 C 29.581186,3.7346576 29.7881,3.9746166 29.908877,4.5833333 30.040654,5.2474882 30.002357,5.8714217 29.760544,7 29.636152,7.5805556 29.132892,9.9281039 28.642188,12.216774 28.151484,14.505444 27.75,16.382741 27.75,16.388543 c 0,0.0058 3.33125,0.02837 7.402778,0.05016 4.071528,0.02178 7.645966,0.06259 7.943196,0.09069 0.673,0.06362 1.078984,0.252638 1.583808,0.737395 0.43731,0.419926 0.722026,0.844209 0.860951,1.282985 0.125044,0.394937 0.20194,2.163189 0.206553,4.74976 l 0.0027,1.521751 -1.451279,3.33936 c -3.157705,7.265808 -4.699861,10.772495 -5.077699,11.546108 -0.259471,0.531264 -0.803391,1.135715 -1.381776,1.535552 -0.678463,0.469021 -0.933692,0.562982 -1.685458,0.62049 -0.359584,0.02751 -7.747538,0.06751 -16.417677,0.0889 l -15.7638888,0.03889 z m 9.6666668,-0.0092 v -9.83331 H 10.277778 6.9166667 v 9.833333 9.833334 h 3.3611113 3.361111 z M 39.62578,31.61214 42.75,24.196502 v -2.417695 -2.417696 h -9.277778 c -7.421489,0 -9.277778,-0.014 -9.277778,-0.06996 0,-0.03848 0.110634,-0.582226 0.245853,-1.208333 1.040809,-4.819286 2.313917,-11.0136998 2.272089,-11.0550422 -0.04369,-0.043184 -1.551966,1.5211361 -8.061558,8.3611112 l -2.062012,2.166667 -0.0027,10.736111 -0.0027,10.736111 h 9.959114 9.959113 z"
     id="path1878" />
</svg>
