<?xml version="1.0" encoding="UTF-8" standalone="no"?>
<svg
   height="48"
   width="48"
   version="1.1"
   id="svg12"
   sodipodi:docname="thumb_up_FILL1_wght400_GRAD0_opsz48.svg"
   inkscape:version="1.2 (dc2aedaf03, 2022-05-15)"
   xmlns:inkscape="http://www.inkscape.org/namespaces/inkscape"
   xmlns:sodipodi="http://sodipodi.sourceforge.net/DTD/sodipodi-0.dtd"
   xmlns="http://www.w3.org/2000/svg"
   xmlns:svg="http://www.w3.org/2000/svg">
  <defs
     id="defs16" />
  <sodipodi:namedview
     id="namedview14"
     pagecolor="#ffffff"
     bordercolor="#000000"
     borderopacity="0.25"
     inkscape:showpageshadow="2"
     inkscape:pageopacity="0.0"
     inkscape:pagecheckerboard="0"
     inkscape:deskcolor="#d1d1d1"
     showgrid="false"
     inkscape:zoom="18"
     inkscape:cx="13.361111"
     inkscape:cy="24"
     inkscape:window-width="1920"
     inkscape:window-height="1051"
     inkscape:window-x="-9"
     inkscape:window-y="-9"
     inkscape:window-maximized="1"
     inkscape:current-layer="svg12" />
  <path
     d="M36.05 42H12.7V16.4L26.6 2L28.25 3.3Q28.8 3.7 28.975 4.2Q29.15 4.7 29.15 5.35V5.85L26.9 16.4H43Q44.15 16.4 45.075 17.325Q46 18.25 46 19.4V23.5Q46 24.05 45.875 24.775Q45.75 25.5 45.5 26.05L39.7 39.45Q39.25 40.5 38.225 41.25Q37.2 42 36.05 42ZM9.7 16.4V42H4V16.4Z"
     id="path10" />
  <path
     style="fill:#ff4d40;stroke-width:0.0555556;fill-opacity:1"
     d="M 12.722222,29.200419 V 16.428616 l 6.925585,-7.1751632 c 4.146533,-4.2959629 6.954689,-7.1639945 6.998115,-7.1473303 0.149859,0.057506 1.866596,1.4466503 2.024736,1.6383694 0.285283,0.3458593 0.395745,0.731532 0.423244,1.4777303 l 0.02457,0.6666667 -1.114791,5.2099671 c -0.613135,2.865481 -1.11479,5.233756 -1.11479,5.262833 0,0.03315 3.102795,0.05844 8.319444,0.06781 l 8.319445,0.01494 0.331159,0.124913 c 0.743412,0.280414 1.45343,0.927842 1.812655,1.652865 0.292321,0.589994 0.327459,0.932841 0.327986,3.200266 5e-4,2.095675 -0.05956,3.000581 -0.248532,3.745546 -0.09994,0.393969 -0.919194,2.345303 -3.14377,7.487949 -1.654735,3.82532 -3.096887,7.101788 -3.204782,7.281039 -0.406487,0.675316 -1.169298,1.35392 -1.913277,1.70207 -0.749395,0.350684 0.01367,0.331108 -12.94755,0.332166 l -11.819445,9.64e-4 z"
     id="path191" />
  <path
     style="fill:#ff4d40;fill-opacity:1;stroke-width:0.0555556"
     d="M 4.0277778,29.194444 V 16.416667 H 6.8611111 9.6944444 V 29.194444 41.972222 H 6.8611111 4.0277778 Z"
     id="path941" />
</svg>
